<?xml version="1.0" encoding="UTF-8"?>
<svg id="Layer_1" data-name="Layer 1" xmlns="http://www.w3.org/2000/svg" width="1920" height="1080" xmlns:xlink="http://www.w3.org/1999/xlink" viewBox="0 0 1920 1080">
  <defs>
    <filter id="drop-shadow-1" filterUnits="userSpaceOnUse">
      <feOffset dx="1" dy="1"/>
      <feGaussianBlur result="blur" stdDeviation="5"/>
      <feFlood flood-color="#000" flood-opacity=".15"/>
      <feComposite in2="blur" operator="in"/>
      <feComposite in="SourceGraphic"/>
    </filter>
  </defs>
  <rect width="1920" height="1080" fill="#f0f1f1" stroke-width="0"/>
  <rect width="1920" height="100" fill="#fcfcfc" filter="url(#drop-shadow-1)" stroke-width="0"/>
  <g>
    <path d="m138.18,60.64v-23.55h5.25v23.55h-5.25Zm4.61-6.69v-4.54h4.19c.81,0,1.51-.16,2.1-.48.59-.32,1.03-.77,1.34-1.36s.46-1.26.46-2.03-.16-1.48-.46-2.06c-.31-.59-.76-1.04-1.34-1.36-.59-.32-1.29-.48-2.1-.48h-4.19v-4.54h3.94c1.98,0,3.69.33,5.1.99,1.42.66,2.51,1.61,3.26,2.83.76,1.23,1.14,2.68,1.14,4.37v.51c0,1.66-.38,3.11-1.14,4.34-.76,1.23-1.85,2.17-3.26,2.83-1.42.66-3.12.99-5.1.99h-3.94Z" fill="#231f20" stroke-width="0"/>
    <path d="m167.04,61.28c-1.49,0-2.81-.26-3.95-.77-1.14-.51-2.1-1.21-2.86-2.08-.77-.87-1.35-1.85-1.74-2.93-.4-1.08-.59-2.18-.59-3.31v-.64c0-1.17.2-2.3.59-3.38.39-1.08.97-2.04,1.73-2.9.76-.85,1.7-1.53,2.82-2.03,1.12-.5,2.39-.75,3.82-.75,1.88,0,3.46.42,4.75,1.26,1.29.84,2.28,1.94,2.96,3.3.68,1.35,1.02,2.83,1.02,4.43v1.73h-15.52v-2.91h12.42l-1.7,1.38c0-1.07-.14-1.97-.43-2.7-.29-.74-.73-1.3-1.31-1.7-.59-.39-1.32-.59-2.19-.59s-1.65.2-2.27.59c-.62.4-1.09.98-1.41,1.76-.32.78-.48,1.73-.48,2.86,0,1.05.15,1.96.45,2.74.3.78.77,1.38,1.41,1.81s1.47.64,2.5.64c.94,0,1.71-.18,2.3-.54.6-.36,1-.81,1.22-1.34h4.7c-.26,1.17-.76,2.22-1.5,3.14-.75.92-1.69,1.64-2.82,2.16-1.13.52-2.43.78-3.9.78Z" fill="#231f20" stroke-width="0"/>
    <path d="m178.95,60.64v-17.54h4.1v7.55h-.1c0-2.5.53-4.42,1.58-5.76,1.06-1.34,2.59-2.02,4.59-2.02h.67v4.45h-1.28c-1.41,0-2.5.37-3.26,1.12-.77.75-1.15,1.83-1.15,3.26v8.93h-5.15Z" fill="#231f20" stroke-width="0"/>
    <path d="m190.88,47.2v-3.74h11.39v3.74h-11.39Zm2.08,13.44v-17.7c0-2.03.57-3.53,1.71-4.51,1.14-.98,2.84-1.47,5.1-1.47h2.24v3.87h-2.46c-.58,0-1.02.16-1.34.46-.32.31-.48.75-.48,1.33v18.02h-4.77Z" fill="#231f20" stroke-width="0"/>
    <path d="m213.28,61.28c-1.54,0-2.9-.24-4.1-.72-1.2-.48-2.21-1.14-3.04-1.98s-1.46-1.8-1.89-2.88-.64-2.21-.64-3.41v-.74c0-1.22.22-2.37.67-3.47.45-1.1,1.09-2.06,1.94-2.9.84-.83,1.86-1.49,3.06-1.97s2.53-.72,4-.72,2.86.24,4.05.72c1.18.48,2.19,1.14,3.02,1.97s1.47,1.8,1.92,2.9c.45,1.1.67,2.26.67,3.47v.74c0,1.19-.21,2.33-.64,3.41s-1.05,2.04-1.87,2.88c-.82.84-1.83,1.5-3.02,1.98s-2.57.72-4.13.72Zm0-4.35c1,0,1.83-.21,2.5-.64.66-.43,1.16-1.02,1.5-1.79s.51-1.62.51-2.56c0-1-.18-1.88-.53-2.64-.35-.76-.86-1.35-1.54-1.79-.67-.44-1.49-.66-2.45-.66s-1.75.22-2.43.66c-.68.44-1.2,1.04-1.55,1.79-.35.76-.53,1.64-.53,2.64,0,.94.17,1.79.51,2.56s.85,1.37,1.54,1.79c.68.43,1.5.64,2.46.64Z" fill="#231f20" stroke-width="0"/>
    <path d="m226.5,60.64v-17.54h4.1v7.55h-.1c0-2.5.53-4.42,1.58-5.76,1.06-1.34,2.59-2.02,4.59-2.02h.67v4.45h-1.28c-1.41,0-2.5.37-3.26,1.12-.77.75-1.15,1.83-1.15,3.26v8.93h-5.15Z" fill="#231f20" stroke-width="0"/>
    <path d="m239.97,60.64v-17.54h4.1v7.55h-.29c0-1.79.22-3.29.67-4.48.45-1.19,1.12-2.1,2.02-2.7s1.99-.91,3.3-.91h.22c1.32,0,2.43.3,3.31.91s1.56,1.51,2.02,2.7c.46,1.19.69,2.69.69,4.48h-1.25c0-1.79.23-3.29.69-4.48.46-1.19,1.14-2.1,2.03-2.7s1.99-.91,3.3-.91h.22c1.32,0,2.44.3,3.34.91s1.59,1.51,2.06,2.7.7,2.69.7,4.48v9.98h-5.15v-10.27c0-.94-.25-1.71-.74-2.3-.49-.6-1.19-.9-2.11-.9s-1.64.3-2.18.91c-.53.61-.8,1.4-.8,2.38v10.18h-5.15v-10.27c0-.94-.25-1.71-.75-2.3-.5-.6-1.2-.9-2.1-.9s-1.67.3-2.21.91-.8,1.4-.8,2.38v10.18h-5.15Z" fill="#231f20" stroke-width="0"/>
    <path d="m276.45,61.09c-1.26,0-2.36-.22-3.31-.67-.95-.45-1.69-1.09-2.22-1.94-.53-.84-.8-1.85-.8-3.02,0-1.28.33-2.33.99-3.15.66-.82,1.59-1.43,2.78-1.82,1.19-.39,2.57-.59,4.13-.59h3.74v2.85h-3.78c-.9,0-1.58.22-2.06.66-.48.44-.72,1.03-.72,1.78,0,.7.24,1.28.72,1.71.48.44,1.17.66,2.06.66.58,0,1.09-.1,1.55-.3.46-.2.84-.55,1.14-1.04.3-.49.47-1.17.51-2.05l1.22,1.28c-.11,1.22-.4,2.24-.88,3.07s-1.14,1.47-1.98,1.92c-.84.45-1.87.67-3.09.67Zm5.6-.45v-5.18h-.86v-5.6c0-.92-.21-1.59-.64-2.03-.43-.44-1.11-.66-2.05-.66-.47,0-1.09.01-1.86.03-.77.02-1.56.05-2.38.08-.82.03-1.56.07-2.22.11v-4.32c.51-.04,1.1-.08,1.76-.13.66-.04,1.34-.07,2.05-.1.7-.02,1.36-.03,1.98-.03,1.79,0,3.3.26,4.53.77,1.23.51,2.16,1.29,2.8,2.32.64,1.03.96,2.36.96,3.98v10.75h-4.06Z" fill="#231f20" stroke-width="0"/>
    <path d="m290.44,60.64v-17.54h4.1v7.52h-.29c0-1.79.23-3.28.69-4.48.46-1.19,1.16-2.09,2.1-2.69.94-.6,2.08-.9,3.42-.9h.22c2.05,0,3.61.67,4.69,2,1.08,1.33,1.62,3.35,1.62,6.06v10.02h-5.15v-10.3c0-.94-.27-1.7-.82-2.29s-1.29-.88-2.22-.88-1.73.3-2.32.9c-.59.6-.88,1.39-.88,2.37v10.21h-5.15Z" fill="#231f20" stroke-width="0"/>
    <path d="m319.2,61.28c-1.54,0-2.86-.26-3.97-.77-1.11-.51-2.04-1.19-2.78-2.05-.75-.85-1.31-1.82-1.68-2.9-.37-1.08-.56-2.19-.56-3.34v-.61c0-1.19.19-2.34.58-3.44s.95-2.07,1.71-2.93c.76-.85,1.7-1.52,2.82-2.02,1.12-.49,2.41-.74,3.86-.74,1.58,0,2.98.3,4.19.91,1.22.61,2.19,1.46,2.91,2.54s1.13,2.35,1.22,3.78h-5.02c-.09-.81-.41-1.49-.96-2.03-.56-.54-1.33-.82-2.34-.82-.85,0-1.56.21-2.13.64-.57.43-.99,1.02-1.26,1.78-.28.76-.42,1.64-.42,2.64,0,.94.13,1.79.38,2.54.26.76.67,1.34,1.23,1.76.56.42,1.31.62,2.22.62.68,0,1.26-.12,1.74-.37.48-.25.86-.59,1.14-1.02.28-.44.46-.94.54-1.52h4.99c-.06,1.45-.47,2.73-1.22,3.82-.75,1.1-1.74,1.96-2.98,2.58-1.24.62-2.65.93-4.22.93Z" fill="#231f20" stroke-width="0"/>
    <path d="m338.92,61.28c-1.49,0-2.81-.26-3.95-.77-1.14-.51-2.1-1.21-2.86-2.08-.77-.87-1.35-1.85-1.74-2.93-.4-1.08-.59-2.18-.59-3.31v-.64c0-1.17.2-2.3.59-3.38.39-1.08.97-2.04,1.73-2.9.76-.85,1.7-1.53,2.82-2.03,1.12-.5,2.39-.75,3.82-.75,1.88,0,3.46.42,4.75,1.26,1.29.84,2.28,1.94,2.96,3.3.68,1.35,1.02,2.83,1.02,4.43v1.73h-15.52v-2.91h12.42l-1.7,1.38c0-1.07-.14-1.97-.43-2.7-.29-.74-.73-1.3-1.31-1.7-.59-.39-1.32-.59-2.19-.59s-1.65.2-2.27.59c-.62.4-1.09.98-1.41,1.76-.32.78-.48,1.73-.48,2.86,0,1.05.15,1.96.45,2.74.3.78.77,1.38,1.41,1.81s1.47.64,2.5.64c.94,0,1.71-.18,2.3-.54.6-.36,1-.81,1.22-1.34h4.7c-.26,1.17-.76,2.22-1.5,3.14-.75.92-1.69,1.64-2.82,2.16-1.13.52-2.43.78-3.9.78Z" fill="#231f20" stroke-width="0"/>
    <path d="m355.65,60.64l7.71-23.36h8.48l8,23.36h-5.44l-6.46-19.71,1.66.67h-4.13l1.73-.67-6.3,19.71h-5.25Zm5.86-5.79l1.6-4.35h9.15l1.63,4.35h-12.38Z" fill="#231f20" stroke-width="0"/>
    <path d="m382.56,60.64v-17.54h4.1v7.52h-.29c0-1.79.23-3.28.69-4.48.46-1.19,1.16-2.09,2.1-2.69.94-.6,2.08-.9,3.42-.9h.22c2.05,0,3.61.67,4.69,2,1.08,1.33,1.62,3.35,1.62,6.06v10.02h-5.15v-10.3c0-.94-.27-1.7-.82-2.29s-1.29-.88-2.22-.88-1.73.3-2.32.9c-.59.6-.88,1.39-.88,2.37v10.21h-5.15Z" fill="#231f20" stroke-width="0"/>
    <path d="m408.45,61.09c-1.26,0-2.36-.22-3.31-.67-.95-.45-1.69-1.09-2.22-1.94-.53-.84-.8-1.85-.8-3.02,0-1.28.33-2.33.99-3.15.66-.82,1.59-1.43,2.78-1.82,1.19-.39,2.57-.59,4.13-.59h3.74v2.85h-3.78c-.9,0-1.58.22-2.06.66-.48.44-.72,1.03-.72,1.78,0,.7.24,1.28.72,1.71.48.44,1.17.66,2.06.66.58,0,1.09-.1,1.55-.3.46-.2.84-.55,1.14-1.04.3-.49.47-1.17.51-2.05l1.22,1.28c-.11,1.22-.4,2.24-.88,3.07s-1.14,1.47-1.98,1.92c-.84.45-1.87.67-3.09.67Zm5.6-.45v-5.18h-.86v-5.6c0-.92-.21-1.59-.64-2.03-.43-.44-1.11-.66-2.05-.66-.47,0-1.09.01-1.86.03-.77.02-1.56.05-2.38.08-.82.03-1.56.07-2.22.11v-4.32c.51-.04,1.1-.08,1.76-.13.66-.04,1.34-.07,2.05-.1.7-.02,1.36-.03,1.98-.03,1.79,0,3.3.26,4.53.77,1.23.51,2.16,1.29,2.8,2.32.64,1.03.96,2.36.96,3.98v10.75h-4.06Z" fill="#231f20" stroke-width="0"/>
    <path d="m420.61,41.06v-3.78h7.23v3.78h-7.23Zm2.08,19.58v-23.36h5.15v23.36h-5.15Z" fill="#231f20" stroke-width="0"/>
    <path d="m435.75,60.26l-5.41-17.15h5.18l5.09,17.15h-4.86Zm-3.39,7.33v-4.35h3.65c.55,0,1.02-.07,1.41-.21.38-.14.69-.37.93-.69.23-.32.43-.76.58-1.31l4.29-17.92h4.9l-4.9,18.94c-.34,1.36-.82,2.46-1.42,3.28-.61.82-1.42,1.4-2.43,1.74-1.01.34-2.3.51-3.86.51h-3.14Zm5.5-7.33v-4h3.71v4h-3.71Z" fill="#231f20" stroke-width="0"/>
    <path d="m457.28,61.22c-2.5,0-4.45-.52-5.86-1.55-1.41-1.03-2.16-2.48-2.24-4.34h4.54c.08.56.42,1.05,1.01,1.49.59.44,1.47.66,2.64.66.9,0,1.64-.15,2.22-.46.59-.31.88-.75.88-1.33,0-.51-.23-.92-.69-1.23-.46-.31-1.25-.52-2.38-.62l-1.38-.16c-2.11-.21-3.7-.79-4.75-1.74-1.06-.95-1.58-2.18-1.58-3.7,0-1.24.31-2.27.93-3.1.62-.83,1.48-1.46,2.58-1.89,1.1-.43,2.35-.64,3.76-.64,2.26,0,4.08.5,5.47,1.49,1.39.99,2.11,2.43,2.18,4.3h-4.58c-.06-.55-.36-1.03-.88-1.44s-1.27-.61-2.26-.61c-.79,0-1.42.15-1.89.45-.47.3-.7.7-.7,1.22s.2.86.61,1.12c.4.26,1.07.44,1.98.54l1.38.13c2.15.24,3.83.83,5.02,1.79s1.79,2.25,1.79,3.87c0,1.17-.32,2.19-.96,3.06-.64.86-1.55,1.53-2.72,2-1.17.47-2.55.7-4.13.7Z" fill="#231f20" stroke-width="0"/>
    <path d="m466.88,46.91v-3.81h7.49v3.81h-7.49Zm4.35-5.54c-.96,0-1.67-.25-2.13-.75-.46-.5-.69-1.14-.69-1.9s.23-1.43.69-1.94c.46-.5,1.17-.75,2.13-.75s1.67.25,2.13.75c.46.5.69,1.15.69,1.94s-.23,1.4-.69,1.9c-.46.5-1.17.75-2.13.75Zm-2.02,19.26v-17.54h5.15v17.54h-5.15Z" fill="#231f20" stroke-width="0"/>
    <path d="m485.76,61.22c-2.5,0-4.45-.52-5.86-1.55-1.41-1.03-2.16-2.48-2.24-4.34h4.54c.08.56.42,1.05,1.01,1.49.59.44,1.47.66,2.64.66.9,0,1.64-.15,2.22-.46.59-.31.88-.75.88-1.33,0-.51-.23-.92-.69-1.23-.46-.31-1.25-.52-2.38-.62l-1.38-.16c-2.11-.21-3.7-.79-4.75-1.74-1.06-.95-1.58-2.18-1.58-3.7,0-1.24.31-2.27.93-3.1.62-.83,1.48-1.46,2.58-1.89,1.1-.43,2.35-.64,3.76-.64,2.26,0,4.08.5,5.47,1.49,1.39.99,2.11,2.43,2.18,4.3h-4.58c-.06-.55-.36-1.03-.88-1.44s-1.27-.61-2.26-.61c-.79,0-1.42.15-1.89.45-.47.3-.7.7-.7,1.22s.2.86.61,1.12c.4.26,1.07.44,1.98.54l1.38.13c2.15.24,3.83.83,5.02,1.79s1.79,2.25,1.79,3.87c0,1.17-.32,2.19-.96,3.06-.64.86-1.55,1.53-2.72,2-1.17.47-2.55.7-4.13.7Z" fill="#231f20" stroke-width="0"/>
  </g>
  <image width="132" height="132" transform="translate(40 23.41) scale(.4)" xlink:href="awesome-chocolates-logo.png"/>
  <rect x="40" y="625.74" width="489.74" height="414.26" fill="#fff" stroke-width="0"/>
  <rect x="546.74" y="625.74" width="489.74" height="414.26" fill="#fff" stroke-width="0"/>
  <rect x="1053.49" y="257" width="826.51" height="783.04" fill="#fff" stroke-width="0"/>
  <g>
    <path d="m1387.11,1065.51c-.98,0-1.83-.17-2.54-.52s-1.29-.81-1.75-1.38-.8-1.18-1.03-1.83c-.23-.65-.34-1.28-.34-1.88v-.33c0-.65.12-1.3.34-1.96.23-.66.58-1.26,1.05-1.81.47-.54,1.06-.98,1.76-1.31.71-.33,1.54-.5,2.5-.5s1.79.17,2.5.5,1.29.77,1.76,1.31.82,1.15,1.05,1.81c.23.66.35,1.32.35,1.96v.33c0,.6-.11,1.23-.34,1.88-.22.65-.57,1.26-1.03,1.83s-1.04,1.03-1.75,1.38-1.56.52-2.54.52Zm0-1.35c.64,0,1.22-.12,1.73-.36.51-.24.95-.57,1.31-.98s.63-.89.83-1.41c.19-.53.29-1.08.29-1.66,0-.61-.1-1.18-.29-1.71-.19-.53-.46-1-.83-1.4-.36-.4-.8-.72-1.31-.95-.52-.23-1.09-.34-1.73-.34s-1.22.11-1.73.34c-.52.23-.95.55-1.31.95-.36.41-.64.87-.83,1.4-.19.53-.29,1.1-.29,1.71s.09,1.13.29,1.66c.19.52.46,1,.83,1.41.36.42.8.74,1.31.98.51.24,1.09.36,1.73.36Z" fill="#a7a9ac" stroke-width="0"/>
    <path d="m1394.07,1058.31v-1.08h9.78v1.08h-9.78Zm1.11,6.93v-8.59c0-.89.24-1.54.71-1.96s1.16-.63,2.07-.63h.81v1.2h-1.05c-.37,0-.66.1-.86.31-.2.21-.3.49-.3.85v8.83h-1.38Zm5.15,0v-8.5c0-.89.23-1.54.71-1.96.47-.42,1.16-.63,2.07-.63h.9v1.2h-1.14c-.37,0-.65.1-.85.31s-.3.49-.3.85v8.75h-1.38Zm4.33-6.87v-1.14h2.61v1.14h-2.61Zm1.57-2.43c-.32,0-.56-.08-.71-.25s-.23-.38-.23-.65.08-.47.23-.64.39-.25.71-.25.56.08.71.25.23.38.23.64-.08.48-.23.65-.39.25-.71.25Zm-.4,9.3v-8.01h1.44v8.01h-1.44Z" fill="#a7a9ac" stroke-width="0"/>
    <path d="m1413.49,1065.51c-.69,0-1.29-.12-1.79-.36s-.92-.56-1.25-.97c-.33-.4-.58-.85-.74-1.34-.17-.49-.25-.98-.25-1.47v-.27c0-.51.08-1.01.25-1.5s.42-.93.75-1.33c.33-.4.75-.71,1.25-.95s1.08-.36,1.75-.36,1.27.12,1.81.38c.53.25.96.6,1.29,1.06.32.46.51.99.55,1.61h-1.38c-.07-.5-.3-.92-.69-1.25-.39-.33-.92-.5-1.58-.5-.57,0-1.04.13-1.42.39-.38.26-.67.62-.86,1.06-.19.45-.29.96-.29,1.53s.09,1.05.29,1.51.48.82.86,1.08.87.4,1.45.4c.45,0,.84-.08,1.17-.24s.59-.38.79-.64c.2-.27.32-.58.36-.92h1.38c-.03.63-.21,1.17-.55,1.63s-.78.82-1.32,1.07-1.16.38-1.84.38Z" fill="#a7a9ac" stroke-width="0"/>
    <path d="m1418.31,1058.37v-1.14h2.67v1.14h-2.67Zm1.63-2.43c-.32,0-.56-.08-.71-.25-.16-.17-.23-.38-.23-.65s.08-.47.23-.64c.15-.17.39-.25.71-.25s.56.08.71.25c.15.17.23.38.23.64s-.08.48-.23.65c-.16.17-.39.25-.71.25Zm-.41,9.3v-8.01h1.44v8.01h-1.44Z" fill="#a7a9ac" stroke-width="0"/>
    <path d="m1425.99,1065.45c-.6,0-1.12-.1-1.55-.31-.44-.2-.77-.5-1-.89-.24-.39-.35-.86-.35-1.41s.13-1.04.38-1.43c.25-.38.63-.67,1.12-.86.49-.19,1.08-.29,1.77-.29h2.17v1.08h-2.23c-.58,0-1.03.14-1.33.42-.31.28-.47.64-.47,1.08s.16.79.47,1.06c.31.27.75.41,1.33.41.34,0,.66-.06.97-.19.31-.12.57-.33.77-.63s.32-.7.34-1.22l.39.57c-.05.57-.19,1.05-.41,1.43-.23.38-.54.68-.93.88-.39.2-.87.3-1.43.3Zm2.62-.21v-2.4h-.24v-2.78c0-.55-.14-.96-.43-1.25-.29-.28-.7-.42-1.25-.42-.31,0-.63,0-.96.01-.33.01-.64.02-.94.03-.3,0-.56.03-.78.04v-1.26c.22-.02.45-.04.7-.05.25-.01.5-.02.76-.03.26,0,.51,0,.75,0,.82,0,1.49.1,2.01.29.52.2.91.51,1.16.95.25.44.38,1.04.38,1.79v5.07h-1.14Z" fill="#a7a9ac" stroke-width="0"/>
    <path d="m1431.37,1055.43v-1.14h2.55v1.14h-2.55Zm1.11,9.81v-10.95h1.44v10.95h-1.44Z" fill="#a7a9ac" stroke-width="0"/>
    <path d="m1443.51,1065.51c-.7,0-1.3-.12-1.82-.36-.51-.24-.92-.56-1.25-.95-.32-.4-.56-.84-.71-1.33-.16-.49-.23-.99-.23-1.5v-.27c0-.52.08-1.03.23-1.51.15-.49.39-.93.71-1.33.32-.39.73-.71,1.22-.95.5-.23,1.08-.35,1.75-.35.87,0,1.59.19,2.15.56.56.38.98.86,1.26,1.45s.41,1.22.41,1.89v.65h-7.11v-1.08h6.06l-.33.58c0-.57-.09-1.06-.27-1.48s-.45-.74-.81-.97c-.36-.23-.81-.34-1.36-.34s-1.04.13-1.42.39c-.38.26-.66.62-.84,1.07-.19.45-.28.97-.28,1.56s.09,1.08.28,1.54c.18.46.47.81.86,1.08.39.27.88.4,1.49.4s1.14-.14,1.54-.42c.4-.28.63-.6.71-.97h1.35c-.11.55-.33,1.03-.66,1.42-.33.4-.75.71-1.24.92-.5.21-1.07.31-1.7.31Z" fill="#a7a9ac" stroke-width="0"/>
    <path d="m1449.28,1065.24v-8.01h1.14v3.43h-.18c0-.79.11-1.46.32-2s.54-.96.98-1.25c.44-.29,1-.43,1.67-.43h.06c1.01,0,1.76.32,2.24.95s.73,1.54.73,2.73v4.58h-1.44v-4.88c0-.62-.18-1.12-.53-1.49-.35-.38-.83-.56-1.44-.56s-1.14.2-1.53.58c-.39.39-.58.91-.58,1.56v4.79h-1.44Z" fill="#a7a9ac" stroke-width="0"/>
    <path d="m1457.71,1058.31v-1.08h5.52v1.08h-5.52Zm4.29,7.02c-.6,0-1.12-.08-1.55-.25-.43-.17-.77-.46-1-.88s-.35-.98-.35-1.69v-7.71h1.38v7.89c0,.43.12.76.35,1s.57.35,1,.35h1.41v1.29h-1.23Z" fill="#a7a9ac" stroke-width="0"/>
    <path d="m1465.27,1065.24v-8.01h1.14v3.3h-.06c0-1.17.26-2.03.77-2.57s1.29-.82,2.32-.82h.27v1.29h-.51c-.8,0-1.42.21-1.84.64-.43.42-.64,1.04-.64,1.84v4.33h-1.44Z" fill="#a7a9ac" stroke-width="0"/>
    <path d="m1473.45,1065.06l-2.87-7.83h1.47l2.75,7.83h-1.35Zm-2.29,3.3v-1.29h1.16c.34,0,.63-.04.86-.13s.43-.23.58-.43c.16-.2.28-.47.38-.79l2.52-8.49h1.41l-2.67,8.87c-.16.53-.38.96-.67,1.3s-.64.58-1.06.74c-.42.15-.9.23-1.45.23h-1.07Zm2.45-3.3v-1.2h1.74v1.2h-1.74Z" fill="#a7a9ac" stroke-width="0"/>
    <path d="m1482.42,1058.4v-1.08h5.02v1.08h-5.02Zm1.11,6.84v-8.42c0-.89.24-1.54.71-1.96s1.16-.63,2.07-.63h.99v1.2h-1.23c-.37,0-.66.1-.86.31-.2.21-.3.49-.3.85v8.65h-1.38Z" fill="#a7a9ac" stroke-width="0"/>
    <path d="m1492.63,1065.51c-.7,0-1.32-.12-1.85-.36-.53-.24-.98-.56-1.34-.95-.37-.4-.64-.84-.83-1.33-.19-.49-.28-.99-.28-1.5v-.27c0-.51.09-1.01.29-1.51.19-.5.47-.94.84-1.33.37-.39.82-.71,1.35-.95.53-.23,1.13-.35,1.82-.35s1.28.12,1.81.35c.53.24.98.55,1.35.95.37.4.65.84.84,1.33.19.5.29,1,.29,1.51v.27c0,.51-.09,1.01-.28,1.5-.18.49-.46.93-.82,1.33-.37.39-.81.71-1.34.95s-1.15.36-1.84.36Zm0-1.29c.6,0,1.11-.13,1.54-.4s.75-.62.97-1.07c.23-.45.34-.95.34-1.51s-.12-1.08-.34-1.53c-.23-.45-.56-.8-.98-1.06-.43-.26-.93-.39-1.52-.39s-1.09.13-1.52.39-.76.62-.99,1.06c-.23.45-.35.96-.35,1.53s.11,1.07.34,1.51c.22.45.55.81.97,1.07s.94.4,1.54.4Z" fill="#a7a9ac" stroke-width="0"/>
    <path d="m1499.08,1065.24v-8.01h1.14v3.3h-.06c0-1.17.26-2.03.77-2.57s1.29-.82,2.32-.82h.27v1.29h-.51c-.8,0-1.42.21-1.84.64-.43.42-.64,1.04-.64,1.84v4.33h-1.44Z" fill="#a7a9ac" stroke-width="0"/>
    <path d="m1513.62,1065.51c-1,0-1.85-.17-2.56-.52s-1.27-.8-1.7-1.37c-.43-.56-.75-1.17-.95-1.82-.2-.65-.3-1.29-.3-1.9v-.33c0-.66.1-1.32.31-1.98.21-.66.52-1.26.95-1.8.43-.54.99-.97,1.68-1.3.69-.33,1.51-.5,2.47-.5s1.82.17,2.52.51c.7.34,1.25.82,1.67,1.43.41.61.66,1.33.75,2.16h-1.5c-.08-.62-.28-1.13-.6-1.54s-.72-.71-1.21-.91c-.49-.2-1.03-.3-1.63-.3-.65,0-1.22.11-1.71.34-.49.23-.9.54-1.22.95s-.57.87-.73,1.4-.25,1.11-.25,1.72.08,1.15.25,1.68.41,1,.75,1.41c.33.41.75.73,1.25.97.5.24,1.08.35,1.75.35.94,0,1.73-.23,2.37-.71.64-.47,1.03-1.15,1.17-2.04h1.5c-.1.75-.35,1.44-.76,2.06-.41.62-.97,1.12-1.68,1.48-.71.37-1.58.55-2.6.55Z" fill="#a7a9ac" stroke-width="0"/>
    <path d="m1520.58,1065.24v-10.95h1.44v6.54h-.36c0-.79.1-1.47.31-2.05s.52-1.02.95-1.33c.43-.31.98-.46,1.65-.46h.06c.96,0,1.69.32,2.18.95.49.63.73,1.54.73,2.72v4.58h-1.44v-4.88c0-.65-.18-1.15-.55-1.51s-.84-.54-1.42-.54c-.64,0-1.15.21-1.54.64s-.58.98-.58,1.67v4.62h-1.44Z" fill="#a7a9ac" stroke-width="0"/>
    <path d="m1532.4,1065.45c-.6,0-1.12-.1-1.55-.31-.44-.2-.77-.5-1-.89-.24-.39-.35-.86-.35-1.41s.13-1.04.38-1.43c.25-.38.63-.67,1.12-.86.49-.19,1.08-.29,1.77-.29h2.17v1.08h-2.23c-.58,0-1.03.14-1.33.42-.31.28-.47.64-.47,1.08s.16.79.47,1.06c.31.27.75.41,1.33.41.34,0,.66-.06.97-.19.31-.12.57-.33.77-.63s.32-.7.34-1.22l.39.57c-.05.57-.19,1.05-.41,1.43-.23.38-.54.68-.93.88-.39.2-.87.3-1.43.3Zm2.62-.21v-2.4h-.24v-2.78c0-.55-.14-.96-.43-1.25-.29-.28-.7-.42-1.25-.42-.31,0-.63,0-.96.01-.33.01-.64.02-.94.03-.3,0-.56.03-.78.04v-1.26c.22-.02.45-.04.7-.05.25-.01.5-.02.76-.03.26,0,.51,0,.75,0,.82,0,1.49.1,2.01.29.52.2.91.51,1.16.95.25.44.38,1.04.38,1.79v5.07h-1.14Z" fill="#a7a9ac" stroke-width="0"/>
    <path d="m1538.8,1065.24v-8.01h1.14v3.43h-.18c0-.79.11-1.46.32-2s.54-.96.98-1.25c.44-.29,1-.43,1.67-.43h.06c1.01,0,1.76.32,2.24.95s.73,1.54.73,2.73v4.58h-1.44v-4.88c0-.62-.18-1.12-.53-1.49-.35-.38-.83-.56-1.44-.56s-1.14.2-1.53.58c-.39.39-.58.91-.58,1.56v4.79h-1.44Z" fill="#a7a9ac" stroke-width="0"/>
    <path d="m1551.75,1065.51c-.57,0-1.09-.1-1.57-.31-.48-.21-.9-.5-1.25-.88-.36-.38-.63-.82-.83-1.32-.19-.5-.29-1.04-.29-1.62v-.27c0-.57.09-1.1.29-1.61.19-.5.46-.94.8-1.32.35-.38.75-.68,1.23-.89.47-.21,1-.32,1.58-.32.61,0,1.17.13,1.67.38s.91.65,1.23,1.19c.32.54.5,1.24.54,2.1l-.6-.96v-5.39h1.44v10.95h-1.14v-3.55h.42c-.04.91-.23,1.65-.57,2.21-.34.56-.77.97-1.28,1.23-.52.25-1.07.38-1.66.38Zm.2-1.26c.49,0,.93-.11,1.33-.33.4-.22.72-.54.96-.95s.36-.9.36-1.46v-.69c0-.55-.12-1.02-.37-1.4s-.57-.68-.97-.88-.85-.31-1.33-.31c-.53,0-1,.12-1.4.38-.41.25-.72.6-.95,1.05-.23.45-.34.98-.34,1.59s.12,1.14.35,1.6c.23.46.55.8.96,1.05.41.25.88.37,1.39.37Z" fill="#a7a9ac" stroke-width="0"/>
    <path d="m1562.43,1065.51c-.7,0-1.32-.12-1.85-.36-.53-.24-.98-.56-1.34-.95-.37-.4-.64-.84-.83-1.33-.19-.49-.28-.99-.28-1.5v-.27c0-.51.09-1.01.29-1.51.19-.5.47-.94.84-1.33.37-.39.82-.71,1.35-.95.53-.23,1.13-.35,1.82-.35s1.28.12,1.81.35c.53.24.98.55,1.35.95.37.4.65.84.84,1.33.19.5.29,1,.29,1.51v.27c0,.51-.09,1.01-.28,1.5-.18.49-.46.93-.82,1.33-.37.39-.81.71-1.34.95s-1.15.36-1.84.36Zm0-1.29c.6,0,1.11-.13,1.54-.4s.75-.62.97-1.07c.23-.45.34-.95.34-1.51s-.12-1.08-.34-1.53c-.23-.45-.56-.8-.98-1.06-.43-.26-.93-.39-1.52-.39s-1.09.13-1.52.39-.76.62-.99,1.06c-.23.45-.35.96-.35,1.53s.11,1.07.34,1.51c.22.45.55.81.97,1.07s.94.4,1.54.4Z" fill="#a7a9ac" stroke-width="0"/>
    <path d="m1572.57,1065.51c-.7,0-1.32-.12-1.85-.36-.53-.24-.98-.56-1.34-.95-.37-.4-.64-.84-.83-1.33-.19-.49-.28-.99-.28-1.5v-.27c0-.51.09-1.01.29-1.51.19-.5.47-.94.84-1.33.37-.39.82-.71,1.35-.95.53-.23,1.13-.35,1.82-.35s1.28.12,1.81.35c.53.24.98.55,1.35.95.37.4.65.84.84,1.33.19.5.29,1,.29,1.51v.27c0,.51-.09,1.01-.28,1.5-.18.49-.46.93-.82,1.33-.37.39-.81.71-1.34.95s-1.15.36-1.84.36Zm0-1.29c.6,0,1.11-.13,1.54-.4s.75-.62.97-1.07c.23-.45.34-.95.34-1.51s-.12-1.08-.34-1.53c-.23-.45-.56-.8-.98-1.06-.43-.26-.93-.39-1.52-.39s-1.09.13-1.52.39-.76.62-.99,1.06c-.23.45-.35.96-.35,1.53s.11,1.07.34,1.51c.22.45.55.81.97,1.07s.94.4,1.54.4Z" fill="#a7a9ac" stroke-width="0"/>
    <path d="m1578.52,1065.24v-1.83h1.74v1.83h-1.74Z" fill="#a7a9ac" stroke-width="0"/>
    <path d="m1586.22,1065.51c-.7,0-1.32-.12-1.85-.36-.53-.24-.98-.56-1.34-.95-.37-.4-.64-.84-.83-1.33-.19-.49-.28-.99-.28-1.5v-.27c0-.51.09-1.01.29-1.51.19-.5.47-.94.84-1.33.37-.39.82-.71,1.35-.95.53-.23,1.13-.35,1.82-.35s1.28.12,1.81.35c.53.24.98.55,1.35.95.37.4.65.84.84,1.33.19.5.29,1,.29,1.51v.27c0,.51-.09,1.01-.28,1.5-.18.49-.46.93-.82,1.33-.37.39-.81.71-1.34.95s-1.15.36-1.84.36Zm0-1.29c.6,0,1.11-.13,1.54-.4s.75-.62.97-1.07c.23-.45.34-.95.34-1.51s-.12-1.08-.34-1.53c-.23-.45-.56-.8-.98-1.06-.43-.26-.93-.39-1.52-.39s-1.09.13-1.52.39-.76.62-.99,1.06c-.23.45-.35.96-.35,1.53s.11,1.07.34,1.51c.22.45.55.81.97,1.07s.94.4,1.54.4Z" fill="#a7a9ac" stroke-width="0"/>
    <path d="m1592.67,1065.24v-8.01h1.14v3.3h-.06c0-1.17.26-2.03.77-2.57s1.29-.82,2.32-.82h.27v1.29h-.51c-.8,0-1.42.21-1.84.64-.43.42-.64,1.04-.64,1.84v4.33h-1.44Z" fill="#a7a9ac" stroke-width="0"/>
    <path d="m1601.76,1068.36c-.37,0-.74-.01-1.12-.04s-.73-.07-1.07-.12v-1.21c.36.05.74.09,1.13.13.39.04.77.05,1.12.05.73,0,1.31-.1,1.75-.29.43-.2.75-.5.94-.92.2-.42.29-.95.29-1.6v-1.53l.48-1.14c-.03.81-.2,1.48-.51,2.02s-.71.93-1.21,1.2c-.5.26-1.04.4-1.64.4-.56,0-1.07-.11-1.54-.32-.46-.21-.86-.51-1.2-.89-.34-.38-.6-.82-.78-1.31-.19-.5-.28-1.02-.28-1.57v-.27c0-.56.09-1.08.29-1.57.19-.49.45-.91.79-1.27.34-.36.75-.64,1.22-.84.48-.2,1-.3,1.57-.3.67,0,1.26.14,1.77.43s.91.7,1.21,1.25c.29.54.46,1.21.49,2h-.42s0-3.41,0-3.41h1.14v7.07c0,.96-.15,1.74-.44,2.33-.29.59-.76,1.03-1.41,1.31-.64.28-1.5.42-2.57.42Zm.43-4.38c.48,0,.92-.11,1.31-.32.4-.21.71-.51.95-.91.23-.39.35-.87.35-1.42v-.69c0-.54-.12-1-.37-1.37-.25-.37-.56-.65-.95-.84-.39-.19-.81-.29-1.27-.29-.52,0-.98.12-1.38.36-.4.24-.71.58-.93,1.01-.22.43-.33.95-.33,1.54s.11,1.11.34,1.54c.22.44.54.78.93,1.01.4.24.85.35,1.36.35Z" fill="#a7a9ac" stroke-width="0"/>
    <path d="m1612.48,1065.24v-11.01h1.47v11.01h-1.47Zm1.17-3.81v-1.29h2.45c.52,0,.95-.1,1.29-.31s.6-.48.77-.83c.17-.35.26-.74.26-1.17s-.09-.83-.26-1.18c-.17-.35-.43-.62-.77-.83s-.77-.3-1.29-.3h-2.45v-1.29h2.17c.9,0,1.65.14,2.26.43s1.06.69,1.37,1.21c.31.52.46,1.14.46,1.85v.24c0,.7-.16,1.31-.46,1.84-.31.52-.77.93-1.37,1.21s-1.36.43-2.26.43h-2.17Z" fill="#a7a9ac" stroke-width="0"/>
    <path d="m1625.41,1065.51c-.7,0-1.32-.12-1.85-.36-.53-.24-.98-.56-1.34-.95-.37-.4-.64-.84-.83-1.33-.19-.49-.28-.99-.28-1.5v-.27c0-.51.09-1.01.29-1.51.19-.5.47-.94.84-1.33.37-.39.82-.71,1.35-.95.53-.23,1.13-.35,1.82-.35s1.28.12,1.81.35c.53.24.98.55,1.35.95.37.4.65.84.84,1.33.19.5.29,1,.29,1.51v.27c0,.51-.09,1.01-.28,1.5-.18.49-.46.93-.82,1.33-.37.39-.81.71-1.34.95s-1.15.36-1.84.36Zm0-1.29c.6,0,1.11-.13,1.54-.4s.75-.62.97-1.07c.23-.45.34-.95.34-1.51s-.12-1.08-.34-1.53c-.23-.45-.56-.8-.98-1.06-.43-.26-.93-.39-1.52-.39s-1.09.13-1.52.39-.76.62-.99,1.06c-.23.45-.35.96-.35,1.53s.11,1.07.34,1.51c.22.45.55.81.97,1.07s.94.4,1.54.4Z" fill="#a7a9ac" stroke-width="0"/>
    <path d="m1632.99,1065.24l-2.27-8.01h1.38l2.21,8.01h-1.32Zm.33,0v-1.14h1.67v1.14h-1.67Zm.73,0l1.62-7.74h1.95l1.89,7.74h-1.23l-1.89-7.71h.48l-1.63,7.71h-1.19Zm4.53,0v-1.14h1.67v1.14h-1.67Zm.67,0l1.92-8.01h1.31l-1.97,8.01h-1.26Z" fill="#a7a9ac" stroke-width="0"/>
    <path d="m1647.69,1065.51c-.7,0-1.3-.12-1.82-.36-.51-.24-.92-.56-1.25-.95-.32-.4-.56-.84-.71-1.33-.16-.49-.23-.99-.23-1.5v-.27c0-.52.08-1.03.23-1.51.15-.49.39-.93.71-1.33.32-.39.73-.71,1.22-.95.5-.23,1.08-.35,1.75-.35.87,0,1.59.19,2.15.56.56.38.98.86,1.26,1.45s.41,1.22.41,1.89v.65h-7.11v-1.08h6.06l-.33.58c0-.57-.09-1.06-.27-1.48s-.45-.74-.81-.97c-.36-.23-.81-.34-1.36-.34s-1.04.13-1.42.39c-.38.26-.66.62-.84,1.07-.19.45-.28.97-.28,1.56s.09,1.08.28,1.54c.18.46.47.81.86,1.08.39.27.88.4,1.49.4s1.14-.14,1.54-.42c.4-.28.63-.6.71-.97h1.35c-.11.55-.33,1.03-.66,1.42-.33.4-.75.71-1.24.92-.5.21-1.07.31-1.7.31Z" fill="#a7a9ac" stroke-width="0"/>
    <path d="m1653.46,1065.24v-8.01h1.14v3.3h-.06c0-1.17.26-2.03.77-2.57s1.29-.82,2.32-.82h.27v1.29h-.51c-.8,0-1.42.21-1.84.64-.43.42-.64,1.04-.64,1.84v4.33h-1.44Z" fill="#a7a9ac" stroke-width="0"/>
    <path d="m1663.24,1065.3v-11.07h1.47v11.07h-1.47Zm1.17-5.23v-.96h2.66c.62,0,1.08-.17,1.37-.5.29-.33.44-.76.44-1.28s-.15-.96-.44-1.3-.75-.5-1.37-.5h-2.66v-1.29h2.4c1.2,0,2.09.25,2.68.76s.89,1.23.89,2.18v.21c0,.67-.15,1.2-.45,1.6-.3.4-.72.68-1.25.84s-1.16.25-1.87.25h-2.4Zm0,5.23v-1.29h3.06c.59,0,1.05-.17,1.37-.5s.49-.78.49-1.34-.16-1.02-.48-1.34c-.32-.33-.78-.49-1.38-.49h-3.06v-.96h2.85c.7,0,1.32.09,1.85.26.53.17.95.45,1.26.85.3.4.46.93.46,1.61v.21c0,.64-.13,1.18-.39,1.63-.26.45-.66.79-1.18,1.02-.53.23-1.2.35-2,.35h-2.85Z" fill="#a7a9ac" stroke-width="0"/>
    <path d="m1673.47,1065.24v-10.95h1.47v10.95h-1.47Z" fill="#a7a9ac" stroke-width="0"/>
    <path d="m1681.57,1065.3v-11.07h1.47v11.07h-1.47Zm1.17,0v-1.35h2.73c.66,0,1.25-.11,1.76-.32.51-.21.95-.51,1.32-.89s.64-.83.83-1.33c.19-.51.29-1.06.29-1.65s-.1-1.18-.29-1.69c-.19-.5-.47-.94-.83-1.32s-.8-.66-1.32-.86c-.52-.2-1.1-.3-1.76-.3h-2.73v-1.35h2.58c.99,0,1.85.15,2.58.46.73.31,1.34.72,1.82,1.23.49.52.85,1.09,1.09,1.72.24.64.36,1.28.36,1.94v.33c0,.64-.12,1.28-.36,1.92-.24.64-.6,1.22-1.09,1.74-.48.52-1.09.94-1.82,1.25-.73.31-1.59.47-2.58.47h-2.58Z" fill="#a7a9ac" stroke-width="0"/>
    <path d="m1695.45,1065.45c-.6,0-1.12-.1-1.55-.31-.44-.2-.77-.5-1-.89-.24-.39-.35-.86-.35-1.41s.13-1.04.38-1.43c.25-.38.63-.67,1.12-.86.49-.19,1.08-.29,1.77-.29h2.17v1.08h-2.23c-.58,0-1.03.14-1.33.42-.31.28-.47.64-.47,1.08s.16.79.47,1.06c.31.27.75.41,1.33.41.34,0,.66-.06.97-.19.31-.12.57-.33.77-.63s.32-.7.34-1.22l.39.57c-.05.57-.19,1.05-.41,1.43-.23.38-.54.68-.93.88-.39.2-.87.3-1.43.3Zm2.62-.21v-2.4h-.24v-2.78c0-.55-.14-.96-.43-1.25-.29-.28-.7-.42-1.25-.42-.31,0-.63,0-.96.01-.33.01-.64.02-.94.03-.3,0-.56.03-.78.04v-1.26c.22-.02.45-.04.7-.05.25-.01.5-.02.76-.03.26,0,.51,0,.75,0,.82,0,1.49.1,2.01.29.52.2.91.51,1.16.95.25.44.38,1.04.38,1.79v5.07h-1.14Z" fill="#a7a9ac" stroke-width="0"/>
    <path d="m1704.48,1065.48c-1.05,0-1.86-.23-2.44-.67-.58-.45-.87-1.07-.89-1.84h1.35c.02.31.18.6.47.88.29.28.8.41,1.51.41.64,0,1.13-.13,1.47-.38s.51-.57.51-.94c0-.33-.13-.59-.38-.77-.25-.19-.66-.31-1.22-.37l-.87-.09c-.76-.08-1.38-.31-1.86-.68-.48-.38-.72-.9-.72-1.58,0-.51.13-.95.39-1.31s.62-.65,1.08-.84c.46-.2.99-.29,1.59-.29.9,0,1.63.2,2.19.6.56.4.85,1,.87,1.78h-1.35c0-.32-.16-.59-.44-.82-.29-.22-.71-.34-1.27-.34s-.99.12-1.27.34c-.29.23-.44.52-.44.87,0,.3.1.54.31.72.21.18.54.29,1.01.34l.87.09c.86.09,1.55.33,2.07.71.52.39.78.93.78,1.63,0,.5-.14.94-.43,1.33s-.68.69-1.18.9c-.5.21-1.08.32-1.73.32Z" fill="#a7a9ac" stroke-width="0"/>
    <path d="m1709.89,1065.24v-10.95h1.44v6.54h-.36c0-.79.1-1.47.31-2.05s.52-1.02.95-1.33c.43-.31.98-.46,1.65-.46h.06c.96,0,1.69.32,2.18.95.49.63.73,1.54.73,2.72v4.58h-1.44v-4.88c0-.65-.18-1.15-.55-1.51s-.84-.54-1.42-.54c-.64,0-1.15.21-1.54.64s-.58.98-.58,1.67v4.62h-1.44Z" fill="#a7a9ac" stroke-width="0"/>
    <path d="m1723.72,1065.51c-.66,0-1.25-.14-1.76-.43-.52-.29-.92-.71-1.22-1.27-.3-.55-.46-1.22-.5-2h.39v3.43h-1.14v-10.95h1.44v5.33l-.51,1.1c.04-.87.22-1.58.53-2.13.31-.55.72-.96,1.22-1.22.5-.27,1.06-.4,1.67-.4.57,0,1.09.11,1.56.32s.88.51,1.21.88.6.81.78,1.3.27,1.03.27,1.6v.27c0,.57-.09,1.1-.28,1.6-.18.5-.45.94-.8,1.33-.35.38-.77.69-1.25.91-.49.22-1.02.33-1.61.33Zm-.17-1.26c.54,0,1.01-.13,1.41-.39.4-.26.71-.62.93-1.07.22-.46.33-.98.33-1.58s-.11-1.12-.34-1.57c-.22-.45-.54-.8-.94-1.04s-.87-.37-1.39-.37c-.48,0-.93.11-1.33.32-.41.21-.74.53-.98.93-.25.41-.37.89-.37,1.46v.69c0,.55.12,1.02.38,1.41.25.39.58.69.99.9s.85.31,1.32.31Z" fill="#a7a9ac" stroke-width="0"/>
    <path d="m1733.52,1065.51c-.7,0-1.32-.12-1.85-.36-.53-.24-.98-.56-1.34-.95-.37-.4-.64-.84-.83-1.33-.19-.49-.28-.99-.28-1.5v-.27c0-.51.09-1.01.29-1.51.19-.5.47-.94.84-1.33.37-.39.82-.71,1.35-.95.53-.23,1.13-.35,1.82-.35s1.28.12,1.81.35c.53.24.98.55,1.35.95.37.4.65.84.84,1.33.19.5.29,1,.29,1.51v.27c0,.51-.09,1.01-.28,1.5-.18.49-.46.93-.82,1.33-.37.39-.81.71-1.34.95s-1.15.36-1.84.36Zm0-1.29c.6,0,1.11-.13,1.54-.4s.75-.62.97-1.07c.23-.45.34-.95.34-1.51s-.12-1.08-.34-1.53c-.23-.45-.56-.8-.98-1.06-.43-.26-.93-.39-1.52-.39s-1.09.13-1.52.39-.76.62-.99,1.06c-.23.45-.35.96-.35,1.53s.11,1.07.34,1.51c.22.45.55.81.97,1.07s.94.4,1.54.4Z" fill="#a7a9ac" stroke-width="0"/>
    <path d="m1742.19,1065.45c-.6,0-1.12-.1-1.55-.31-.44-.2-.77-.5-1-.89-.24-.39-.35-.86-.35-1.41s.13-1.04.38-1.43c.25-.38.63-.67,1.12-.86.49-.19,1.08-.29,1.77-.29h2.17v1.08h-2.23c-.58,0-1.03.14-1.33.42-.31.28-.47.64-.47,1.08s.16.79.47,1.06c.31.27.75.41,1.33.41.34,0,.66-.06.97-.19.31-.12.57-.33.77-.63s.32-.7.34-1.22l.39.57c-.05.57-.19,1.05-.41,1.43-.23.38-.54.68-.93.88-.39.2-.87.3-1.43.3Zm2.62-.21v-2.4h-.24v-2.78c0-.55-.14-.96-.43-1.25-.29-.28-.7-.42-1.25-.42-.31,0-.63,0-.96.01-.33.01-.64.02-.94.03-.3,0-.56.03-.78.04v-1.26c.22-.02.45-.04.7-.05.25-.01.5-.02.76-.03.26,0,.51,0,.75,0,.82,0,1.49.1,2.01.29.52.2.91.51,1.16.95.25.44.38,1.04.38,1.79v5.07h-1.14Z" fill="#a7a9ac" stroke-width="0"/>
    <path d="m1748.59,1065.24v-8.01h1.14v3.3h-.06c0-1.17.26-2.03.77-2.57s1.29-.82,2.32-.82h.27v1.29h-.51c-.8,0-1.42.21-1.84.64-.43.42-.64,1.04-.64,1.84v4.33h-1.44Z" fill="#a7a9ac" stroke-width="0"/>
    <path d="m1758,1065.51c-.57,0-1.09-.1-1.57-.31-.48-.21-.9-.5-1.25-.88-.36-.38-.63-.82-.83-1.32-.19-.5-.29-1.04-.29-1.62v-.27c0-.57.09-1.1.29-1.61.19-.5.46-.94.8-1.32.35-.38.75-.68,1.23-.89.47-.21,1-.32,1.58-.32.61,0,1.17.13,1.67.38s.91.65,1.23,1.19c.32.54.5,1.24.54,2.1l-.6-.96v-5.39h1.44v10.95h-1.14v-3.55h.42c-.04.91-.23,1.65-.57,2.21-.34.56-.77.97-1.28,1.23-.52.25-1.07.38-1.66.38Zm.2-1.26c.49,0,.93-.11,1.33-.33.4-.22.72-.54.96-.95s.36-.9.36-1.46v-.69c0-.55-.12-1.02-.37-1.4s-.57-.68-.97-.88-.85-.31-1.33-.31c-.53,0-1,.12-1.4.38-.41.25-.72.6-.95,1.05-.23.45-.34.98-.34,1.59s.12,1.14.35,1.6c.23.46.55.8.96,1.05.41.25.88.37,1.39.37Z" fill="#a7a9ac" stroke-width="0"/>
    <path d="m1773.37,1065.51c-1,0-1.85-.17-2.56-.52s-1.27-.8-1.7-1.37c-.43-.56-.75-1.17-.95-1.82-.2-.65-.3-1.29-.3-1.9v-.33c0-.66.1-1.32.31-1.98.21-.66.52-1.26.95-1.8.43-.54.99-.97,1.68-1.3.69-.33,1.51-.5,2.47-.5s1.82.17,2.52.51c.7.34,1.25.82,1.67,1.43.41.61.66,1.33.75,2.16h-1.5c-.08-.62-.28-1.13-.6-1.54s-.72-.71-1.21-.91c-.49-.2-1.03-.3-1.63-.3-.65,0-1.22.11-1.71.34-.49.23-.9.54-1.22.95s-.57.87-.73,1.4-.25,1.11-.25,1.72.08,1.15.25,1.68.41,1,.75,1.41c.33.41.75.73,1.25.97.5.24,1.08.35,1.75.35.94,0,1.73-.23,2.37-.71.64-.47,1.03-1.15,1.17-2.04h1.5c-.1.75-.35,1.44-.76,2.06-.41.62-.97,1.12-1.68,1.48-.71.37-1.58.55-2.6.55Z" fill="#a7a9ac" stroke-width="0"/>
    <path d="m1784.02,1065.51c-.7,0-1.32-.12-1.85-.36-.53-.24-.98-.56-1.34-.95-.37-.4-.64-.84-.83-1.33-.19-.49-.28-.99-.28-1.5v-.27c0-.51.09-1.01.29-1.51.19-.5.47-.94.84-1.33.37-.39.82-.71,1.35-.95.53-.23,1.13-.35,1.82-.35s1.28.12,1.81.35c.53.24.98.55,1.35.95.37.4.65.84.84,1.33.19.5.29,1,.29,1.51v.27c0,.51-.09,1.01-.28,1.5-.18.49-.46.93-.82,1.33-.37.39-.81.71-1.34.95s-1.15.36-1.84.36Zm0-1.29c.6,0,1.11-.13,1.54-.4s.75-.62.97-1.07c.23-.45.34-.95.34-1.51s-.12-1.08-.34-1.53c-.23-.45-.56-.8-.98-1.06-.43-.26-.93-.39-1.52-.39s-1.09.13-1.52.39-.76.62-.99,1.06c-.23.45-.35.96-.35,1.53s.11,1.07.34,1.51c.22.45.55.81.97,1.07s.94.4,1.54.4Z" fill="#a7a9ac" stroke-width="0"/>
    <path d="m1790.47,1065.24v-8.01h1.14v3.43h-.18c0-.79.11-1.46.32-2s.54-.96.98-1.25c.44-.29,1-.43,1.67-.43h.06c1.01,0,1.76.32,2.24.95s.73,1.54.73,2.73v4.58h-1.44v-4.88c0-.62-.18-1.12-.53-1.49-.35-.38-.83-.56-1.44-.56s-1.14.2-1.53.58c-.39.39-.58.91-.58,1.56v4.79h-1.44Z" fill="#a7a9ac" stroke-width="0"/>
    <path d="m1798.9,1058.31v-1.08h5.52v1.08h-5.52Zm4.29,7.02c-.6,0-1.12-.08-1.55-.25-.43-.17-.77-.46-1-.88s-.35-.98-.35-1.69v-7.71h1.38v7.89c0,.43.12.76.35,1s.57.35,1,.35h1.41v1.29h-1.23Z" fill="#a7a9ac" stroke-width="0"/>
    <path d="m1809.81,1065.51c-.7,0-1.3-.12-1.82-.36-.51-.24-.92-.56-1.25-.95-.32-.4-.56-.84-.71-1.33-.16-.49-.23-.99-.23-1.5v-.27c0-.52.08-1.03.23-1.51.15-.49.39-.93.71-1.33.32-.39.73-.71,1.22-.95.5-.23,1.08-.35,1.75-.35.87,0,1.59.19,2.15.56.56.38.98.86,1.26,1.45s.41,1.22.41,1.89v.65h-7.11v-1.08h6.06l-.33.58c0-.57-.09-1.06-.27-1.48s-.45-.74-.81-.97c-.36-.23-.81-.34-1.36-.34s-1.04.13-1.42.39c-.38.26-.66.62-.84,1.07-.19.45-.28.97-.28,1.56s.09,1.08.28,1.54c.18.46.47.81.86,1.08.39.27.88.4,1.49.4s1.14-.14,1.54-.42c.4-.28.63-.6.71-.97h1.35c-.11.55-.33,1.03-.66,1.42-.33.4-.75.71-1.24.92-.5.21-1.07.31-1.7.31Z" fill="#a7a9ac" stroke-width="0"/>
    <path d="m1818.21,1065.48c-1.05,0-1.86-.23-2.44-.67-.58-.45-.87-1.07-.89-1.84h1.35c.02.31.18.6.47.88.29.28.8.41,1.51.41.64,0,1.13-.13,1.47-.38s.51-.57.51-.94c0-.33-.13-.59-.38-.77-.25-.19-.66-.31-1.22-.37l-.87-.09c-.76-.08-1.38-.31-1.86-.68-.48-.38-.72-.9-.72-1.58,0-.51.13-.95.39-1.31s.62-.65,1.08-.84c.46-.2.99-.29,1.59-.29.9,0,1.63.2,2.19.6.56.4.85,1,.87,1.78h-1.35c0-.32-.16-.59-.44-.82-.29-.22-.71-.34-1.27-.34s-.99.12-1.27.34c-.29.23-.44.52-.44.87,0,.3.1.54.31.72.21.18.54.29,1.01.34l.87.09c.86.09,1.55.33,2.07.71.52.39.78.93.78,1.63,0,.5-.14.94-.43,1.33s-.68.69-1.18.9c-.5.21-1.08.32-1.73.32Z" fill="#a7a9ac" stroke-width="0"/>
    <path d="m1822.45,1058.31v-1.08h5.52v1.08h-5.52Zm4.29,7.02c-.6,0-1.12-.08-1.55-.25-.43-.17-.77-.46-1-.88s-.35-.98-.35-1.69v-7.71h1.38v7.89c0,.43.12.76.35,1s.57.35,1,.35h1.41v1.29h-1.23Z" fill="#a7a9ac" stroke-width="0"/>
    <path d="m1833.04,1061.69v-1.23h5.58v1.23h-5.58Z" fill="#a7a9ac" stroke-width="0"/>
    <path d="m1844.17,1065.24v-1.8c0-.44.06-.81.19-1.12.12-.31.34-.59.65-.85.31-.25.73-.5,1.26-.74l2.05-.95c.5-.23.89-.53,1.19-.89.29-.36.43-.84.43-1.42,0-.7-.2-1.25-.58-1.63-.39-.39-.94-.59-1.65-.59s-1.25.2-1.65.59c-.4.39-.6.93-.6,1.63h-1.41c0-.63.13-1.21.4-1.74.26-.53.67-.95,1.21-1.27.54-.31,1.22-.47,2.05-.47s1.51.16,2.05.47c.54.32.93.73,1.2,1.24.26.51.4,1.07.4,1.67v.21c0,.79-.23,1.46-.68,2s-1.07.99-1.84,1.33l-2.05.95c-.46.21-.77.42-.93.63-.16.21-.24.49-.24.84v1.38l-.39-.69h6.27v1.23h-7.32Z" fill="#a7a9ac" stroke-width="0"/>
    <path d="m1857.88,1065.51c-.82,0-1.52-.14-2.09-.43s-1.04-.67-1.39-1.16c-.36-.49-.61-1.06-.77-1.7-.16-.64-.24-1.33-.24-2.05v-.81c0-1.01.16-1.92.47-2.73.31-.81.8-1.45,1.47-1.93s1.52-.71,2.56-.71,1.89.24,2.55.71,1.15,1.12,1.46,1.93c.31.81.47,1.72.47,2.73v.81c0,.72-.08,1.4-.24,2.05-.16.65-.42,1.21-.77,1.7-.36.49-.82.88-1.39,1.16s-1.27.43-2.08.43Zm0-1.32c1.04,0,1.8-.35,2.29-1.06.49-.71.73-1.82.73-3.35s-.25-2.75-.74-3.43c-.5-.69-1.25-1.04-2.27-1.04s-1.79.34-2.29,1.04c-.5.69-.74,1.83-.74,3.4s.25,2.67.74,3.38c.49.71,1.25,1.07,2.29,1.07Z" fill="#a7a9ac" stroke-width="0"/>
    <path d="m1864.59,1065.24v-1.8c0-.44.06-.81.19-1.12.12-.31.34-.59.65-.85.31-.25.73-.5,1.26-.74l2.05-.95c.5-.23.89-.53,1.19-.89.29-.36.43-.84.43-1.42,0-.7-.2-1.25-.58-1.63-.39-.39-.94-.59-1.65-.59s-1.25.2-1.65.59c-.4.39-.6.93-.6,1.63h-1.41c0-.63.13-1.21.4-1.74.26-.53.67-.95,1.21-1.27.54-.31,1.22-.47,2.05-.47s1.51.16,2.05.47c.54.32.93.73,1.2,1.24.26.51.4,1.07.4,1.67v.21c0,.79-.23,1.46-.68,2s-1.07.99-1.84,1.33l-2.05.95c-.46.21-.77.42-.93.63-.16.21-.24.49-.24.84v1.38l-.39-.69h6.27v1.23h-7.32Z" fill="#a7a9ac" stroke-width="0"/>
    <path d="m1873.44,1062.65v-1.77l4.54-6.85,1,.79-4.24,6.42.13.27h7.08v1.14h-8.52Zm5.71,2.59v-7.75h1.35v7.75h-1.35Z" fill="#a7a9ac" stroke-width="0"/>
  </g>
  <rect x="40" y="140" width="292.5" height="100" fill="#fff" stroke-width="0"/>
  <rect x="349.5" y="140" width="292.5" height="100" fill="#fff" stroke-width="0"/>
  <rect x="659" y="140" width="292.5" height="100" fill="#fff" stroke-width="0"/>
  <rect x="968.5" y="140" width="292.5" height="100" fill="#fff" stroke-width="0"/>
  <rect x="1278" y="140" width="292.5" height="100" fill="#fff" stroke-width="0"/>
  <rect x="1587.5" y="140" width="292.5" height="100" fill="#fff" stroke-width="0"/>
</svg>