<?xml version="1.0" encoding="utf-8"?>
<svg xmlns="http://www.w3.org/2000/svg" viewBox="0 0 26 26" width="208" height="208">
  <path d="M13 0C9.699219 0 7 2.101563 7 6C7 8.609375 8.214844 11.3125 10 12.8125L10 14.1875C10 14.789063 9.59375 15.304688 9.09375 15.40625C5.195313 16.605469 2 19.1875 2 20.6875L2 22.5C2 24.398438 6.898438 26 13 26C19.101563 26 24 24.398438 24 22.5L24 20.6875C24 19.289063 20.90625 16.605469 16.90625 15.40625C16.40625 15.304688 16 14.6875 16 14.1875L16 12.8125C17.785156 11.3125 19 8.609375 19 6C19 2.101563 16.300781 0 13 0Z" fill="#5B5B5B" />
</svg>