<?xml version="1.0" encoding="utf-8"?>
<svg xmlns="http://www.w3.org/2000/svg" viewBox="0 0 64 64" width="512" height="512">
  <path d="M32,4C16.539,4,4,16.539,4,32s12.539,28,28,28s28-12.539,28-28S47.461,4,32,4z M33.814,45.233v2.593h-3.652v-2.52 c-2.301-0.231-4.748-1.059-6.525-2.386l1.814-4.529c1.777,1.339,3.957,2.313,6.245,2.313c2.605,0,3.81-1.266,3.81-3.226 c0-1.741-1.607-2.544-3.957-3.883c-2.946-1.668-7.584-3.08-7.584-8.169c0-3.713,2.776-6.002,6.197-6.623v-2.63h3.652v2.508 c2.082,0.195,3.932,0.767,5.466,1.923l-1.351,4.784c-1.704-1.412-3.336-1.997-5.807-1.997c-2.106,0-3.555,0.73-3.555,1.863 c0,1.558,1.631,2.35,4.395,3.847c4.395,2.35,7.402,4.565,7.402,8.631C40.363,42.214,37.892,44.612,33.814,45.233z" fill="#5B5B5B" />
</svg>