<?xml version="1.0" encoding="utf-8"?>
<svg xmlns="http://www.w3.org/2000/svg" viewBox="0 0 30 30" width="480" height="480">
  <path d="M15 1C11.691 1 9 3.691 9 7C9 7.552 9.448 8 10 8C10.552 8 11 7.552 11 7C11 4.794 12.794 3 15 3C17.206 3 19 4.794 19 7C19 7.552 19.448 8 20 8C20.552 8 21 7.552 21 7C21 3.691 18.309 1 15 1 z M 6.9394531 10C6.4894531 10 6.1004688 10.300234 5.9804688 10.740234L5.5996094 12.130859L4.3300781 18.900391L3.2792969 24.490234L3 26C3 26.23 3.0804687 26.450859 3.2304688 26.630859C3.4204687 26.860859 3.7 27 4 27L6 27C6 27.55 6.45 28 7 28C7.55 28 8 27.55 8 27L21 27C21 27.55 21.45 28 22 28C22.55 28 23 27.55 23 27L26 27C26.3 27 26.579531 26.870859 26.769531 26.630859C26.919531 26.450859 27 26.23 27 26L26.720703 24.490234L25.669922 18.900391L24.400391 12.130859L24.019531 10.740234C23.899531 10.300234 23.510547 10 23.060547 10L6.9394531 10 z M 12.169922 13.919922C13.479922 13.919922 14.330078 14.809687 14.330078 16.179688C14.330078 17.539687 13.479922 18.429688 12.169922 18.429688C10.869922 18.429688 10 17.539687 10 16.179688C10 14.809688 10.859922 13.919922 12.169922 13.919922 z M 16.880859 14.130859L18.919922 14.130859L15.539062 18.740234L13.179688 22.869141L11.140625 22.869141L14.460938 18.289062L16.880859 14.130859 z M 12.169922 15.220703C11.789922 15.220703 11.570312 15.569922 11.570312 16.169922C11.570312 16.759922 11.789922 17.119141 12.169922 17.119141C12.529922 17.119141 12.759766 16.759922 12.759766 16.169922C12.759766 15.569922 12.549922 15.220703 12.169922 15.220703 z M 17.839844 18.570312C19.139844 18.570312 20 19.460313 20 20.820312C20 22.190313 19.139844 23.080078 17.839844 23.080078C16.529844 23.080078 15.679687 22.190312 15.679688 20.820312C15.679688 19.460313 16.529844 18.570312 17.839844 18.570312 z M 17.839844 19.869141C17.469844 19.869141 17.240234 20.220312 17.240234 20.820312C17.240234 21.420313 17.469844 21.769531 17.839844 21.769531C18.209844 21.769531 18.429687 21.420313 18.429688 20.820312C18.429688 20.210313 18.219844 19.869141 17.839844 19.869141 z" fill="#5B5B5B" />
</svg>