<svg width="75" height="45" viewBox="0 0 75 45" fill="none" xmlns="http://www.w3.org/2000/svg">
<path d="M35 0.0002143C34.6166 5.92568e-05 34.2384 0.075467 33.8944 0.220609C33.5505 0.365751 33.2501 0.57674 33.0165 0.837265C32.7829 1.09779 32.6223 1.40088 32.5471 1.72309C32.4719 2.0453 32.4842 2.37802 32.583 2.69551L41.7432 32.1429H39.3311C38.9568 31.5874 38.4417 31.1109 37.824 30.7488C37.2062 30.3866 36.5015 30.1479 35.7617 30.0503L22.207 12.8573H25C25.3313 12.8613 25.6602 12.8089 25.9676 12.703C26.275 12.5971 26.5548 12.4399 26.7908 12.2405C27.0267 12.0411 27.214 11.8035 27.3419 11.5416C27.4698 11.2796 27.5356 10.9984 27.5356 10.7144C27.5356 10.4305 27.4698 10.1493 27.3419 9.88734C27.214 9.62536 27.0267 9.38778 26.7908 9.1884C26.5548 8.98902 26.275 8.83182 25.9676 8.72593C25.6602 8.62005 25.3313 8.56759 25 8.5716H17.8467C17.6039 8.54079 17.3571 8.54079 17.1143 8.5716H15C14.6687 8.56759 14.3398 8.62005 14.0324 8.72593C13.725 8.83182 13.4452 8.98902 13.2092 9.1884C12.9733 9.38778 12.786 9.62536 12.6581 9.88734C12.5302 10.1493 12.4644 10.4305 12.4644 10.7144C12.4644 10.9984 12.5302 11.2796 12.6581 11.5416C12.786 11.8035 12.9733 12.0411 13.2092 12.2405C13.4452 12.4399 13.725 12.5971 14.0324 12.703C14.3398 12.8089 14.6687 12.8613 15 12.8573H16.1719L17.5293 14.5774L13.9355 23.8185C13.4319 23.7719 13.0289 23.5715 12.5 23.5715C8.54167 23.5715 5.25473 24.921 3.12988 26.97C1.00504 29.0189 0 31.6667 0 34.2858C0 36.9048 1.00504 39.5526 3.12988 41.6016C5.25473 43.6505 8.54167 45 12.5 45C16.4583 45 19.7453 43.6505 21.8701 41.6016C23.4069 40.1197 24.166 38.2997 24.5752 36.4286H30.6689C31.1079 37.0802 31.7392 37.6213 32.4995 37.9975C33.2597 38.3736 34.1222 38.5716 35 38.5715C35.8762 38.5701 36.7366 38.3715 37.495 37.9954C38.2534 37.6193 38.8832 37.079 39.3213 36.4286H44.6143C44.8779 36.465 45.1466 36.465 45.4102 36.4286H47.9248C48.334 38.2997 49.0931 40.1197 50.6299 41.6016C52.7547 43.6505 56.0417 45 60 45C63.9583 45 67.2453 43.6505 69.3701 41.6016C71.0546 39.9773 72.0096 37.974 72.3438 35.9096C73.9187 35.1884 75 33.7812 75 32.1429V23.1405C75 22.1397 74.1918 21.2727 73.0518 21.052L41.5771 14.9625L38.2568 4.28591H42.5C42.8313 4.28992 43.1602 4.23746 43.4676 4.13158C43.775 4.02569 44.0548 3.86849 44.2908 3.66911C44.5267 3.46973 44.714 3.23215 44.8419 2.97017C44.9698 2.70819 45.0356 2.42704 45.0356 2.14306C45.0356 1.85908 44.9698 1.57793 44.8419 1.31595C44.714 1.05397 44.5267 0.816391 44.2908 0.617011C44.0548 0.417631 43.775 0.26043 43.4676 0.154544C43.1602 0.0486582 42.8313 -0.0038015 42.5 0.0002143H35ZM21.0596 19.0556L31.0205 31.6951C30.8958 31.8381 30.7816 31.9877 30.6787 32.1429H24.5752C24.166 30.2718 23.4069 28.4518 21.8701 26.97C21.037 26.1666 19.8959 25.5812 18.7354 25.0322L21.0596 19.0556ZM60 27.8572C62.7083 27.8572 64.4214 28.6506 65.6299 29.8159C66.8384 30.9812 67.5 32.6191 67.5 34.2858C67.5 35.9524 66.8384 37.5903 65.6299 38.7556C64.4214 39.9209 62.7083 40.7143 60 40.7143C57.2917 40.7143 55.5786 39.9209 54.3701 38.7556C53.1808 37.6088 52.5499 35.9961 52.5293 34.3569C52.5312 34.3081 52.5312 34.2592 52.5293 34.2104C52.551 32.5727 53.1818 30.9618 54.3701 29.8159C55.5786 28.6506 57.2917 27.8572 60 27.8572ZM12.3535 27.8823L10.127 33.6078C10.023 33.8749 9.98147 34.1569 10.0047 34.4378C10.028 34.7187 10.1155 34.9929 10.2624 35.2448C10.4093 35.4967 10.6127 35.7213 10.8608 35.9058C11.109 36.0903 11.3972 36.2311 11.7088 36.3202C12.0205 36.4092 12.3496 36.4448 12.6773 36.4248C13.005 36.4048 13.3249 36.3297 13.6187 36.2037C13.9126 36.0778 14.1746 35.9035 14.3898 35.6907C14.605 35.4779 14.7692 35.2309 14.873 34.9638L17.1191 29.184C17.4463 29.4031 17.859 29.5548 18.1299 29.8159C19.3192 30.9627 19.9501 32.5755 19.9707 34.2146C19.9688 34.2634 19.9688 34.3123 19.9707 34.3611C19.949 35.9988 19.3182 37.6098 18.1299 38.7556C16.9214 39.9209 15.2083 40.7143 12.5 40.7143C9.79167 40.7143 8.0786 39.9209 6.87012 38.7556C5.66163 37.5903 5 35.9524 5 34.2858C5 32.6191 5.66163 30.9812 6.87012 29.8159C8.05235 28.6759 9.74603 27.9159 12.3535 27.8823ZM60 32.1429C59.337 32.1429 58.7011 32.3687 58.2322 32.7705C57.7634 33.1724 57.5 33.7174 57.5 34.2858C57.5 34.8541 57.7634 35.3991 58.2322 35.801C58.7011 36.2029 59.337 36.4286 60 36.4286C60.663 36.4286 61.2989 36.2029 61.7678 35.801C62.2366 35.3991 62.5 34.8541 62.5 34.2858C62.5 33.7174 62.2366 33.1724 61.7678 32.7705C61.2989 32.3687 60.663 32.1429 60 32.1429Z" fill="white"/>
</svg>
