<svg width="61" height="41" viewBox="0 0 61 41" fill="none" xmlns="http://www.w3.org/2000/svg">
<path d="M19.8913 0.0227287C17.2391 -0.240608 15.3847 1.87125 15.25 1.87125L6.36625 14.9606C7.42816 14.6973 8.61957 14.5631 10.0803 14.5631L17.3686 3.85402C17.638 3.59068 18.4357 2.79551 19.6271 2.92976C20.8185 3.06401 22.1446 4.38586 23.4707 6.50288L24.1337 7.69048L26.5217 6.23438L25.8587 5.04678C24.0042 2.0055 22.0151 0.286066 19.8913 0.0227287ZM41.1087 0.0227287C38.8554 0.286066 36.8663 2.0055 35.1413 5.04678L34.4783 6.36863L36.8663 7.82473L37.5293 6.63197C38.7207 4.38586 40.0468 3.19826 41.3729 3.06401C42.5643 2.92976 43.362 3.72493 43.6314 3.98827L50.9248 14.6921C52.2509 14.6921 53.5718 14.9606 54.6337 15.0949L45.8795 2.0055L45.75 1.87125C45.6153 1.87125 43.8956 -0.240608 41.1087 0.0227287ZM11.2717 17.2067C0 17.2067 0 23.2893 0 29.1034C0 35.7126 5.04017 41 11.4012 41C17.9022 41 22.9423 35.4493 25.3252 30.4252C25.7292 29.5216 26.0193 28.6387 26.2109 27.7815H34.7269C34.9445 28.587 35.2553 29.4287 35.6748 30.2961C38.0577 35.4493 43.0978 40.8709 49.5988 40.8709C55.8303 40.8709 61 35.5835 61 28.9743C61 23.2893 61 17.2067 49.5988 17.2067C49.4123 17.2067 49.2465 17.2222 49.0652 17.2222V17.2067H11.9348V17.2274C11.7069 17.2222 11.5048 17.2067 11.2717 17.2067ZM23.5536 19.8504H37.3843C36.5606 20.4236 35.8976 21.0845 35.4055 21.8332C34.7683 22.8143 34.4575 23.9296 34.4161 25.1378H26.4648C26.4026 23.9193 26.0866 22.7988 25.4598 21.8332C24.9833 21.0742 24.3461 20.4184 23.5536 19.8504Z" fill="white"/>
</svg>
