<?xml version="1.0" encoding="utf-8"?>
<svg xmlns="http://www.w3.org/2000/svg" viewBox="0 0 64 64" width="512" height="512">
  <path d="M18 16C9.187124 16 2 23.187124 2 32C2 40.812876 9.187124 48 18 48L46 48C54.812876 48 62 40.812876 62 32C62 23.187124 54.812876 16 46 16L18 16 z M 46 20C46.414187 20 46.823177 20.021529 47.226562 20.0625C47.227844 20.062629 47.229188 20.062371 47.230469 20.0625C52.874744 20.637623 57.362377 25.125256 57.9375 30.769531C57.978731 31.174171 58 31.584485 58 32C58 32.414187 57.978471 32.823177 57.9375 33.226562C57.937371 33.227844 57.937629 33.229188 57.9375 33.230469C57.362377 38.874744 52.874744 43.362377 47.230469 43.9375C46.825829 43.978731 46.415515 44 46 44C39.373 44 34 38.627 34 32C34 25.373 39.373 20 46 20 z" fill="#5B5B5B" />
</svg>